<svg xmlns="http://www.w3.org/2000/svg" viewBox="0 0 210.01 233.05"><defs><style>.cls-1{fill:none;stroke:#212683;stroke-miterlimit:10;stroke-width:6px}.cls-2{fill:#1f268e}</style></defs><g id="Layer_2" data-name="Layer 2"><g id="Layer_1-2" data-name="Layer 1"><path class="cls-1" d="M200.48 190.76 147.93 222a31 31 0 0 1-10 3.79l-19.34 3.69a31.45 31.45 0 0 1-13.87-.49l-46.6-12.31a44.62 44.62 0 0 0-22.43-.11l-23.12 5.9a7.44 7.44 0 0 1-9.4-6.94L3 189.23a7.21 7.21 0 0 1 4.67-6.74l48.08-18.84A31 31 0 0 1 66 161.53l32.22-1.18 23.53-.87h.36a10.65 10.65 0 1 1 .14 21.28l-43.84.24a3.39 3.39 0 0 0-3.41 3.37v.19a3.38 3.38 0 0 0 3 3.13l20.41 2.57 29.33 3.69a14.56 14.56 0 0 0 8.22-1.36L184.37 169l2.68-1.3a14.2 14.2 0 0 1 6.11-1.43 13.93 13.93 0 0 1 10.94 5.11 13 13 0 0 1-3.62 19.38z"/><path class="cls-1" d="M185.1 169.76c-.24-.28-.48-.55-.73-.81a24.16 24.16 0 0 0-27.66-5.21L135 173.82l-2.25 1M138.39 58h-18.24a1.21 1.21 0 0 1-1.21-1.21V38.55a1.21 1.21 0 0 0-1.21-1.21H94.14a1.21 1.21 0 0 0-1.21 1.21v18.23A1.21 1.21 0 0 1 91.71 58H73.48a1.21 1.21 0 0 0-1.21 1.21V82.8a1.21 1.21 0 0 0 1.21 1.2h18.23a1.21 1.21 0 0 1 1.21 1.21v18.23a1.21 1.21 0 0 0 1.21 1.21h23.59a1.21 1.21 0 0 0 1.21-1.21V85.22a1.21 1.21 0 0 1 1.22-1.22h18.23a1.21 1.21 0 0 0 1.21-1.21V59.2a1.21 1.21 0 0 0-1.2-1.2z"/><path class="cls-1" d="M171.83 87.85a68 68 0 1 1 0-33.7"/><path class="cls-2" d="M31.24 126.23h-2.1v-2.1A2.59 2.59 0 0 0 24 124v2.1h-2.1a2.59 2.59 0 1 0-.1 5.17h2.1v2.1a2.59 2.59 0 0 0 5.17.1v-2.1h2.1a2.59 2.59 0 0 0 .1-5.17zM194.3 126.23h-2.1v-2.1a2.59 2.59 0 0 0-5.17-.1v2.1h-2.1a2.59 2.59 0 1 0-.1 5.17h2.1v2.1a2.59 2.59 0 0 0 5.17.1v-2.1h2.1a2.59 2.59 0 0 0 .1-5.17zM197.25 27.78h-2.13v-2.13a2.62 2.62 0 0 0-5.24-.1v2.13h-2.13a2.62 2.62 0 1 0-.1 5.24h2.13v2.13a2.62 2.62 0 0 0 5.24.1L195 33h2.13a2.62 2.62 0 0 0 .1-5.24z"/><circle cx="171.83" cy="71" r="3.29" style="fill:#212683"/><path class="cls-1" d="M85.26 26.61H82.7a18.19 18.19 0 0 0-18.19 18.2M103.43 37.33V71M103.43 75.5v4.75M28.55 174.31v44.08M47.05 167.06v22.69M47.05 193.25V199"/></g></g></svg>